<?xml version="1.0" encoding="UTF-8"?>
<svg id="Layer_1" xmlns="http://www.w3.org/2000/svg" version="1.1" viewBox="0 0 1424.55 305.47">
  <!-- Generator: Adobe Illustrator 29.8.1, SVG Export Plug-In . SVG Version: 2.1.1 Build 2)  -->
  <defs>
    <style>
      .st0 {
        fill: #0a1c35;
      }

      .st1 {
        fill: #fff;
      }
    </style>
  </defs>
  <polygon class="st0" points="0 152.73 0 305.47 1424.55 305.47 1424.55 0 0 0 0 152.73"/>
  <path class="st1" d="M287.75,74.65c-21.9-36.6-58.1-62.6-100.5-72-10.5-2.4-41.8-3.5-52.1-1.9C94.05,7.25,56.35,28.95,32.05,60.25c-47.4,61.3-41.7,145.9,13.6,200.3,11.6,11.4,23.9,20,39.9,28,14.5,7.3,25,11.1,37.2,13.6,69.8,14.3,139.1-18.6,170.3-80.9,11.9-23.8,15.8-40.2,15.9-67,.2-31.4-5.8-53.6-21.2-79.6ZM278.34,213.75c-27.89,55.54-89.83,84.86-152.22,72.11-10.9-2.23-20.29-5.61-33.25-12.12-14.3-7.13-25.3-14.8-35.66-24.96C7.78,200.28,2.69,124.87,45.05,70.23c21.72-27.9,55.42-47.24,92.15-53.04,9.2-1.43,37.18-.45,46.56,1.69,37.9,8.38,70.26,31.56,89.83,64.18,13.77,23.18,19.13,42.97,18.95,70.96-.09,23.89-3.58,38.51-14.21,59.72Z"/>
  <path class="st1" d="M826.85,92.25c8.1,2.1,14.7,5.7,20.6,11.2l5.2,4.8-7.4,7.4-7.5,7.3-5.6-4.6c-6.9-5.6-14.5-8.1-22.7-7.3-13.7,1.2-21.3,11.7-16.2,22.4,2.3,4.9,8.4,8.5,21.7,12.9,28.4,9.4,36.8,16.9,38.3,34.3,2.1,24.6-18.7,41.7-48.3,39.7-5-.3-11.5-1.3-14.5-2.2-8-2.3-18-7.9-22.5-12.5l-3.8-3.9,7.1-7.2,7.2-7.2,4.6,4.3c2.6,2.4,7.2,5.5,10.3,6.9,4.9,2.3,7,2.7,15.2,2.7s10.1-.3,13.8-2.5c6.8-3.9,10.3-11.2,8.2-17.6-2-6.1-7.5-9.6-24.2-15.3-26.7-9.2-34.2-15.7-37-32.1-1.1-6.2-1-8,.5-13.8,3.6-13.8,13.7-23.6,28.7-27.8,6.3-1.7,21.5-1.7,28.3.1h0Z"/>
  <path class="st1" d="M388.55,121.55v28.5c0,.4,4.4-4.4,9.8-10.6,5.3-6.2,16.4-19,24.6-28.5l14.9-17.2h29.1l-4,4.2c-2.3,2.4-14.3,15.7-26.8,29.6l-22.8,25.3,3.5,4.2c1.9,2.3,7.4,8.7,12.2,14.2,14.3,16.6,38.5,45.4,38.5,46,0,.3-6.2.5-13.8.5h-13.8l-9.9-11.8c-24.5-29-41-48.2-41.5-48.2-.3,0-.5,13.4-.5,29.7v29.8l-11.2.3-11.3.3v-124l10.8-.3c5.9-.2,11.1-.2,11.5,0,.4.2.7,12.8.7,28h0Z"/>
  <path class="st0" d="M1152.45,94.25c5.7,2.9,7.8,12.2,4.1,18.2-3,5-6.2,6.6-12.1,6.1-7.3-.7-11.1-4.6-11.7-12.2-.4-5.4-.3-5.7,3.6-9.6,3.5-3.5,4.5-4,8.6-4,2.6,0,6,.7,7.5,1.5h0Z"/>
  <polygon class="st1" points="506.55 119.25 506.55 144.75 566.55 144.75 566.55 93.75 588.55 93.75 588.55 217.75 566.55 217.75 566.55 163.75 506.55 163.75 506.55 217.75 484.55 217.75 484.55 93.75 506.55 93.75 506.55 119.25"/>
  <polygon class="st1" points="637.75 155.45 637.45 217.25 616.05 217.25 615.75 155.45 615.55 93.75 638.05 93.75 637.75 155.45"/>
  <polygon class="st1" points="753.75 103.75 753.45 113.75 716.55 113.75 716.55 217.75 694.55 217.75 694.55 113.75 656.55 113.75 656.55 93.75 754.05 93.75 753.75 103.75"/>
  <path class="st1" d="M1019.35,141.95l.3,9.8h-6.8c-7.7,0-13.3,2.1-17.5,6.6-5.4,5.8-5.8,8.2-5.8,34.9v24.5h-21v-84h20v6.2l.1,6.3,3-3.7c5.5-6.7,14.6-10.9,22.9-10.5l4.5.2.3,9.7Z"/>
  <path class="st1" d="M1231.05,133.25c7.3,1.9,14.4,5.7,18.5,10l3.1,3.2-6.8,6.6-6.8,6.6-3.5-3.4c-13.3-13-36.2-5.5-40,13.1-1.6,7.6-.5,14.9,3,21.1,7.8,13.7,26.1,16.4,37.3,5.5,2.3-2.3,4.1-3.3,4.5-2.6.4.5,3.5,3.6,6.9,6.7l6.2,5.6-4.6,4c-13.1,11.6-33.7,14.2-50.1,6.4-7.2-3.4-16.6-12.3-20-18.8-11.4-22.4-3.3-49.3,18.1-60.1,10.4-5.3,23.1-6.7,34.2-3.9h0Z"/>
  <path class="st1" d="M1409.05,134.86c3.5,1.3,7.8,3.9,10.4,6.4l4.4,4.2-6.4,6.1-6.4,6.1-3-2.9c-4.7-4.3-9.4-6.3-15.6-6.4-8.5-.1-14.1,4.6-12.5,10.7.9,3.6,4.2,5.3,16.8,8.7,21.8,5.9,27.8,11.5,27.8,25.6,0,15-10.7,25-28.6,26.9-12.7,1.4-29.6-3.9-36.9-11.5l-2.9-3.1,12.2-12.2,4.2,3.6c7.3,6.2,18.7,8.5,26.5,5.3,3.8-1.6,5.5-4.2,5.5-8.4,0-5.3-3.5-7.1-22.5-12.2-14.8-3.9-21.1-9.7-22.2-20.4-1.4-13.7,6.9-24.4,22.1-28.3,7.1-1.8,19.7-1,27.1,1.8h0Z"/>
  <path class="st1" d="M1052.05,135.45c.3,1,5.4,14.2,11.2,29.3,5.8,15.1,10.9,28.2,11.3,29,.8,1.3.9,1.3,1.4,0,.3-.8,5.5-14.6,11.5-30.5l10.8-29,11.2-.3c6.1-.1,11.1-.1,11.1,0,0,.2-5.6,14.1-12.5,30.8-6.9,16.8-14.7,35.6-17.2,41.8l-4.7,11.3-11.4-.3-11.4-.3-7-17c-3.8-9.4-11.4-27.7-16.9-40.9-5.4-13.1-9.9-24.2-9.9-24.7s4.9-.9,10.9-.9c9.4,0,11,.2,11.6,1.7h0Z"/>
  <polygon class="st1" points="1155.55 175.75 1155.55 217.75 1135.55 217.75 1135.55 133.75 1155.55 133.75 1155.55 175.75"/>
  <path class="st0" d="M1155.55,175.75"/>
  <path d="M144.95,68.36"/>
  <path class="st1" d="M222.85,109.75h-17.3l.5-2.3c1.2-5.1,7.5-36.2,7.5-36.9,0-.3-.7-1.4-1.6-2.2-2-2-21.1-2.3-23.7-.4-1.2.9-2.9,7-5.7,21.2-2.2,11-4,20.1-4,20.3s-9,.3-20,.3h-20l.5-2.3c1.3-5.7,7.5-35.8,7.5-36.6,0-.5-.7-1.7-1.6-2.5-2-2.1-21.1-2.3-23.7-.3-1.3.9-2.9,6.7-5.7,21.2-2.2,11-4,20.1-4,20.2,0,.2-8.1.3-17.9.3-14,0-18.3.3-19.3,1.4-.8.8-2,4.7-2.7,8.7-.7,4.1-1.5,8.2-1.7,9.1-.3.9.4,2.6,1.5,3.7,2,2,3.3,2.1,18.7,2.1,12.9,0,16.5.3,16.1,1.3-.2.6-1.9,8.7-3.7,18l-3.3,16.7h-15.8c-8.7,0-16.9.4-18.2.9-2.2.8-2.7,2.1-4.3,10.6-1.3,7-1.5,10.1-.7,11.3.9,1.5,3.3,1.7,17.2,2,10.4.2,16.1.6,16.1,1.3,0,.6-1.6,8.7-3.5,18-1.9,9.4-3.5,18.1-3.5,19.4,0,3.6,2.8,4.5,13.8,4.5,8.2,0,10.2-.3,11.5-1.8.9-1,3.1-9.6,5.4-21.2l3.8-19.5,19.8-.3c15.6-.2,19.7,0,19.7,1.1,0,.7-1.6,8.8-3.5,18-1.9,9.2-3.5,17.8-3.5,19.2,0,3.6,2.7,4.5,13.3,4.5,13.5,0,12.9.8,17.5-23l3.7-19.5,20.2-.3c14.5-.2,20.4-.6,21.1-1.5.6-.7,1.8-5.5,2.7-10.7l1.6-9.5-2.1-1.7c-1.9-1.6-4.5-1.8-20.1-1.8-9.8,0-17.9-.3-17.9-.6s1.6-8.2,3.5-17.5c1.9-9.4,3.5-17.2,3.5-17.5,0-.2,8-.4,17.8-.4,13.7,0,18.3-.3,19.7-1.4,1.4-1,2.4-4,3.6-10.8,2.4-13.3,3.1-12.8-18.8-12.8ZM169.65,152.45l-3.7,17.8-19.7.3c-11.9.1-19.7-.1-19.7-.7,0-.8,2-10.7,6.7-32.4l.6-2.7h39.4l-3.6,17.7Z"/>
  <path class="st1" d="M926.95,134.75c-7.2-2.7-20.6-3.5-27.9-1.7-16.6,4.3-29,18.6-31.8,36.8-2.5,16.5,5,34.4,18.1,42.8,18.3,11.7,44.3,9.8,58-4.2l4.3-4.4-5.3-4.4c-9.5-7.9-8.3-7.6-12.9-3.4-5.5,5-9.6,6.5-17.4,6.5-12.2,0-20.3-5.9-23.6-17.2l-.8-2.8,31.2-.2,31.2-.3.3-6.9c.8-18.8-8.5-34.9-23.4-40.6ZM930.55,167.75h-43.1l.6-2.3c2.4-7.9,9.4-15,16.6-16.7,7-1.7,13.3-.4,18.8,3.7,3.5,2.7,7,9.2,7.1,13v2.3Z"/>
  <path class="st1" d="M1345.45,168.25c-2-15.9-11.1-28.8-23.9-33.6-6.3-2.4-20.3-3.4-26.3-1.9-21.9,5.6-35.9,26.6-32.9,49.4,1.7,13.1,8.4,24.3,18,30.5,18,11.5,42.7,10,57.2-3.5l5-4.7-6.1-5.6c-3.4-3.1-6.6-5.8-7.1-5.9-.4-.2-2.8,1.4-5.2,3.5-5.2,4.6-10.1,6.3-18,6.3-11.3,0-19.5-6.2-22.7-17.2l-.8-2.8,29-.2c15.9-.1,29.9-.2,31.2-.2,3.1-.1,3.9-4.2,2.6-14.1ZM1325.55,167.75h-43.1l.7-2.3c2.6-8.5,8.2-14.1,16.2-16.3,7.5-2.1,17,.3,21.3,5.2,2.6,3,4.9,8.1,4.9,10.9v2.5Z"/>
</svg>