<?xml version="1.0" encoding="UTF-8"?>
<svg id="Layer_1" xmlns="http://www.w3.org/2000/svg" version="1.1" xmlns:xlink="http://www.w3.org/1999/xlink" viewBox="0 0 544 132">
  <!-- Generator: Adobe Illustrator 29.8.1, SVG Export Plug-In . SVG Version: 2.1.1 Build 2)  -->
  <defs>
    <style>
      .st0 {
        fill: none;
      }

      .st1 {
        clip-path: url(#clippath);
      }
    </style>
    <clipPath id="clippath">
      <rect class="st0" x="0" y="0" width="544" height="132"/>
    </clipPath>
  </defs>
  <g class="st1">
    <path d="M54.3.21c-10.5,1.34-20.92,5.74-29.28,12.29-4.54,3.58-12.25,12.42-15.19,17.47C-1.02,48.52-2.96,70.22,4.37,90.45c6.34,17.47,20.12,31.53,37.11,37.79,14.85,5.52,30.65,4.27,44.86-3.58,6.45-3.54,10.73-7.03,15.58-12.73,14.2-16.56,19.81-40.25,14.77-62.33-2.71-11.86-7.48-21.18-15.46-30.24C90.42,7.11,77.44.72,61.9.03c-2.52-.09-5.96,0-7.6.17h0ZM70.87,9.61c12.48,3.28,22.98,10.74,30.23,21.53,10.04,14.88,12.9,35.03,7.56,53.19-.42,1.55-1.64,4.75-2.67,7.12-7.29,17-21.53,28.73-38.21,31.53-5.23.86-13.4.65-18.09-.47-6.8-1.6-14.12-5.05-19.85-9.36-3.89-2.89-10.96-10.78-13.44-15.01-3.97-6.69-7.18-15.53-8.32-22.73-.73-4.92-.73-14.02,0-18.94,1.75-11.39,6.76-22.26,13.93-30.37,7.52-8.54,18.09-14.75,28.44-16.78,1.26-.26,2.71-.56,3.24-.65,2.52-.52,14.05.13,17.18.95h0ZM70.87,9.61"/>
  </g>
  <path d="M46.36,29.84c-.34.43-1.18,4.31-1.99,8.93-.76,4.49-1.45,8.28-1.56,8.41-.11.09-3.24.26-6.99.35-4.7.09-6.87.3-7.21.69-.69.82-1.68,8.02-1.22,8.97.34.73.92.82,6.8.82,3.51,0,6.49.09,6.6.22.08.13-.46,3.67-1.18,7.85l-1.37,7.68-6.57.22c-4.01.13-6.72.39-6.99.69-.23.26-.69,2.37-1.03,4.7-.84,5.57-1.03,5.39,6.64,5.39,3.21,0,5.84.13,5.84.3,0,.22-.61,3.97-1.41,8.37-1.22,6.82-1.34,8.15-.92,8.76.42.56,1.3.69,4.62.69,3.51,0,4.16-.13,4.73-.82.42-.52,1.15-3.71,2.02-9.06l1.41-8.24h7.56c5.8,0,7.56.13,7.56.52,0,.3-.61,4.1-1.38,8.41-1.15,6.43-1.3,8.02-.92,8.54.61.86,8.28.95,9.28.09.42-.35,1.07-3.06,2.06-8.93l1.45-8.41,7.71-.22c4.35-.13,7.86-.39,8.09-.65.19-.26.57-1.81.8-3.45.23-1.68.5-3.54.61-4.14.42-2.33-.3-2.55-8.09-2.55-3.85,0-7.02-.09-7.02-.17s.61-3.62,1.34-7.85c.72-4.18,1.34-7.72,1.34-7.81,0-.04,3.13-.13,6.99-.13s7.18-.17,7.48-.39c.57-.43,1.53-5.31,1.57-7.94,0-1.12-.19-1.73-.61-1.9-.34-.13-3.47-.3-6.99-.3-5.38-.04-6.34-.13-6.3-.69.04-.34.69-4.18,1.49-8.54,1.11-6.25,1.3-8.02.95-8.5-.69-.95-8.86-.91-9.54,0-.27.39-1.15,4.4-1.95,8.89-.76,4.53-1.53,8.33-1.64,8.46-.38.43-14.62.69-14.85.3-.11-.22.46-4.1,1.26-8.59,1.07-5.82,1.37-8.37,1.11-8.93-.34-.69-.92-.78-4.7-.78s-4.39.13-4.89.73h0ZM66.44,59.18c-.11.69-.76,4.23-1.41,7.89l-1.22,6.69-7.52.13c-4.16.04-7.56-.04-7.56-.26s.61-3.75,1.34-7.85c.72-4.1,1.34-7.55,1.34-7.64s3.44-.13,7.64-.13h7.64l-.23,1.17ZM66.44,59.18"/>
  <path d="M306.98,39.5c-3.44.56-7.37,2.98-9.7,5.82-4.58,5.65-4.54,14.54.08,19.93,1.99,2.33,5.27,4.23,10.96,6.34,7.25,2.68,9.16,4.4,9.16,8.41,0,2.59-1.34,4.79-3.7,6.08-1.49.82-2.44,1.03-5.08,1.03-3.93,0-6.57-1.21-9.47-4.27l-1.83-1.94-2.56,2.89c-1.41,1.6-2.56,3.15-2.56,3.45,0,.26.88,1.29,1.98,2.29,3.93,3.49,7.71,5.05,13.29,5.44,6.45.43,11.15-1.21,14.54-5,2.98-3.41,3.9-6.21,3.7-11.47-.19-4.66-.88-6.43-3.67-9.4-2.14-2.24-4.12-3.37-9.81-5.48-7.33-2.72-9.35-4.49-9.66-8.28-.19-2.85.84-4.79,3.36-6.38,1.41-.86,2.21-1.08,4.39-1.03,3.21,0,5.5,1.03,7.9,3.58l1.68,1.73,2.86-3.24,2.83-3.24-1.99-2.11c-4.05-4.23-10.54-6.21-16.72-5.13h0ZM306.98,39.5"/>
  <path d="M435.48,40.63c-1.98,1.16-2.82,2.76-2.79,5.13,0,2.37.84,3.88,2.79,5.09,3.89,2.41,8.55-2.85,6.6-7.33-1.37-3.11-4.2-4.31-6.6-2.89h0ZM435.48,40.63"/>
  <path d="M140.23,40.58c-.15.17-.27,12.21-.27,26.79v26.44h8.32l.23-1.85c.15-1.04.23-6.73.23-12.64-.04-5.91-.04-10.91-.04-11.09.04-.22,3.24,3.84,7.14,9.06,3.9,5.18,8.29,11,9.77,12.94l2.67,3.58h10.65l-1.98-2.72c-1.07-1.47-5.69-7.59-10.23-13.59-4.54-6-8.28-11.09-8.36-11.26-.04-.17,3.21-4.49,7.25-9.53,9.28-11.6,12.52-15.79,12.52-16.13,0-.13-2.29-.26-5.12-.26h-5.11l-7.21,9.36c-3.93,5.13-8.17,10.65-9.43,12.29-1.22,1.6-2.33,2.93-2.48,2.93-.11,0-.23-5.48-.27-12.21v-12.17l-4.01-.13c-2.21-.04-4.12.04-4.28.17h0ZM140.23,40.58"/>
  <path d="M185.4,67.07v26.75h8.4v-22.86h22.91v22.86h8.4v-53.49h-8.4v22h-22.91v-22h-8.4v26.75ZM185.4,67.07"/>
  <path d="M235.79,67.07v26.75h8.4l-.08-26.66-.11-26.62-4.08-.13-4.12-.13v26.79ZM235.79,67.07"/>
  <path d="M251.06,44.64v4.31h14.51v44.86h8.02v-44.86h14.51v-8.63h-37.03v4.31ZM251.06,44.64"/>
  <path d="M343.29,57.62c-2.44.65-5.88,2.98-7.6,5.13-6.91,8.67-5.65,22.52,2.56,28.86,4.93,3.8,12.45,4.44,17.98,1.6,1.83-.95,5.54-4.27,5.54-4.96,0-.17-1.11-1.34-2.48-2.59l-2.48-2.29-1.64,1.55c-.92.86-2.29,1.81-3.05,2.2-1.6.73-4.77.86-6.87.17-1.87-.56-4.39-3.15-5.27-5.35-1.41-3.45-2.18-3.24,11.07-3.24h11.8l.23-1.85c.46-3.84-1.03-10.18-3.21-13.59-1.45-2.29-4.16-4.36-6.95-5.35-2.44-.82-7.03-.99-9.62-.3h0ZM351.38,64.87c.76.43,1.79,1.29,2.25,1.86.99,1.16,2.02,3.79,2.02,5.09,0,.82-.23.86-8.21.86s-8.21,0-8.21-.86c0-2.28,2.52-5.87,4.96-7.07,1.91-.95,5.46-.86,7.18.13h0ZM351.38,64.87"/>
  <path d="M382.88,58.23c-1.11.56-2.79,1.94-3.78,3.06-.95,1.12-1.72,1.77-1.68,1.42.04-.35.08-1.51.04-2.67l-.04-2.03h-7.25v35.8h7.64v-10.05c0-5.87.19-10.7.42-11.73.99-4.1,4.31-6.69,8.67-6.69h2.37v-8.2h-2.18c-1.53,0-2.83.35-4.2,1.08h0ZM382.88,58.23"/>
  <path d="M459.38,58.18c-6.91,2.76-10.96,9.45-10.96,18.12,0,7.42,3.21,13.24,9.05,16.56,6.34,3.62,13.7,2.8,19.16-2.07l2.02-1.81-2.02-2.37c-2.86-3.24-3.13-3.41-4.43-2.03-1.95,2.03-3.93,2.93-6.41,2.93-2.64-.04-4.47-.82-6.38-2.72-3.78-3.75-4.2-12.25-.8-16.48,3.67-4.57,9.39-5,13.25-.99l1.49,1.55,2.48-2.85,2.52-2.8-.76-.95c-3.74-4.75-11.95-6.56-18.21-4.1h0ZM459.38,58.18"/>
  <path d="M493.66,57.71c-7.14,2.67-11.64,9.71-11.64,18.2,0,9.66,5.57,17.08,14.16,18.81,3.36.69,7.83.09,10.8-1.47,2.02-1.08,5.69-4.44,5.5-5.09-.08-.17-1.22-1.42-2.56-2.72l-2.44-2.42-1.34,1.55c-1.91,2.24-3.97,3.19-6.95,3.19-4.24,0-7.29-2.37-8.78-6.81l-.76-2.24h24.01l.23-1.42c.76-4.62-1.79-13.03-4.89-16.09-2.9-2.85-5.27-3.8-9.81-3.93-2.56-.09-4.54.09-5.54.43h0ZM502.21,64.91c1.79.99,3.24,2.89,3.86,4.96.84,2.85.92,2.8-8.02,2.8-7.83,0-8.02-.04-8.02-.86,0-2.28,2.52-5.87,4.96-7.07,1.95-.95,5.42-.86,7.21.17h0ZM502.21,64.91"/>
  <path d="M526.91,57.84c-3.51,1.25-6.03,3.71-7.1,6.86-.27.73-.46,2.5-.46,4.01,0,2.12.23,3.11,1.03,4.62,1.34,2.59,3.24,3.75,8.97,5.52,5.42,1.64,6.72,2.42,7.06,4.18.61,3.19-1.91,5.35-5.92,5.05-2.79-.17-4.31-.95-6.45-3.11l-1.41-1.47-2.41,2.72-2.4,2.72,1.6,1.55c3.66,3.54,9.31,5.22,14.47,4.31,6.45-1.12,9.93-5.09,9.96-11.26,0-6.08-2.64-8.8-10.96-11.13-3.13-.91-4.39-1.47-5.15-2.37-2.56-2.85-.27-6,4.31-6,2.18,0,3.78.78,5.61,2.72l1.22,1.34,2.41-2.67,2.37-2.72-1.72-1.73c-2.52-2.46-5.19-3.49-9.54-3.67-2.52-.13-4.2.04-5.5.52h0ZM526.91,57.84"/>
  <path d="M393.22,58.74c.15.43,1.03,2.89,1.98,5.52.95,2.59,3.74,10.27,6.22,17.04l4.47,12.29,8.78.26,1.68-4.44c.92-2.46,2.71-7.38,4.05-10.91,1.3-3.58,3.51-9.53,4.89-13.33,1.38-3.75,2.52-6.9,2.52-6.99s-1.87-.17-4.12-.17h-4.16l-2.52,7.42c-1.38,4.1-3.28,9.88-4.28,12.85-.95,2.98-1.91,5.57-2.06,5.74-.19.22-1.03-1.73-1.91-4.31-.88-2.54-2.94-8.5-4.54-13.2l-2.9-8.5h-4.16c-3.82,0-4.16.09-3.93.73h0ZM393.22,58.74"/>
  <path d="M433.84,65.65c0,4.23-.08,10.78-.11,14.58-.04,3.8.04,8.41.11,10.22l.19,3.36h7.52v-35.8h-7.64l-.08,7.64ZM433.84,65.65"/>
</svg>