<?xml version="1.0" encoding="UTF-8"?>
<svg id="Layer_1" xmlns="http://www.w3.org/2000/svg" version="1.1" viewBox="0 0 595.28 249.48">
  <!-- Generator: Adobe Illustrator 29.8.1, SVG Export Plug-In . SVG Version: 2.1.1 Build 2)  -->
  <defs>
    <style>
      .st0 {
        fill: #0a1c35;
      }

      .st1 {
        fill: #0a1b35;
      }

      .st2 {
        fill: #e75b25;
      }
    </style>
  </defs>
  <path class="st2" d="M60.38,58.37c-15.85,1.64-30.05,9.09-41.1,21.5-5.51,6.19-9.41,12.18-12.38,19.1C1.93,110.36-.38,122.55.05,134.54c1.04,27.05,14.59,50.73,36.19,63.17,14.07,8.08,29.92,9.88,45.71,5.18,12.19-3.6,23.4-11.62,31.53-22.57,8.35-11.21,13.61-24.59,15.35-38.96.55-4.51.55-14.17,0-18.94-1.31-11.62-5.35-23.27-11.51-33.24-2.21-3.57-6.35-8.97-6.71-8.71-.14.1-.19.03-.11-.13.35-.7-8.81-9.44-9.55-9.12-.19.1-.41,0-.52-.19-.14-.22-.05-.25.19-.1,1.01.66-.35-.54-1.94-1.74-5.1-3.79-13.25-7.58-19.99-9.31-5.37-1.36-13.36-2.02-18.33-1.52h0ZM72.02,67.8c6.33.85,12.22,2.84,18.08,6.13,14.97,8.33,25.66,23.2,29.86,41.48,6.16,26.77-3.27,55.09-23.59,70.75-5.75,4.42-12.95,7.86-19.85,9.47-17.97,4.17-36.05-1.48-50.18-15.75-.87-.88-1.72-1.58-1.85-1.55-.14.06-.22-.1-.16-.32.03-.19-.14-.35-.35-.28-.22.06-.33.03-.22-.1.22-.28-4.06-6-4.53-6-.16-.03-.27-.19-.25-.38.05-.22-.82-1.93-1.91-3.79-4.34-7.42-7.5-16.83-8.95-26.61-.46-3.09-.46-15.09,0-18.47.44-3.25,2.24-10.54,3.49-14.21,3.41-10.01,9.65-19.7,16.85-26.23,8.48-7.67,20.13-13.16,30.27-14.3,3.49-.38,9.87-.32,13.28.16h0ZM72.02,67.8"/>
  <path class="st1" d="M50.67,91.23c-.52.5-.84,1.89-2.29,10.2l-1.66,9.6-7.55.16c-7.09.16-7.58.19-8.07.79-.41.47-.68,1.74-1.15,5.27-.87,6.44-1.53,5.94,7.39,5.94,3.85,0,7.06.06,7.15.16.05.1-.25,2.18-.68,4.64-.44,2.49-1.12,6.44-1.53,8.78l-.71,4.26-7.34.16c-6.35.13-7.34.22-7.64.66-.16.32-.6,2.62-.95,5.15-.9,6.38-1.47,5.87,6.95,5.87,3.65,0,6.68.1,6.74.22.05.16-.6,4.29-1.47,9.25-.87,4.96-1.58,9.16-1.58,9.38-.03.22.25.66.57,1.04.55.57.95.63,5.02.63,3.79,0,4.5-.06,4.99-.57.49-.44.82-1.96,2.05-9.06.82-4.7,1.56-9.06,1.64-9.72l.19-1.17h8.29c7.96,0,8.32.03,8.32.6,0,.47-.46,3.25-1.23,7.42-.16.98-1.5,9.03-1.69,10.17-.11.76,0,1.17.44,1.67.55.63.85.66,5.05.66,3.85,0,4.56-.06,5.05-.57.52-.44.85-2.05,2.26-10.26l1.66-9.69h8.26c7.66,0,8.32-.03,8.78-.57.38-.44.68-1.86,1.15-5.21.87-6.47,1.66-5.9-8.24-5.9-6.57,0-7.85-.06-7.85-.44,0-.5,2.65-16.13,2.89-17.02.14-.51.76-.54,7.85-.54,7.69,0,7.72,0,8.29-.73.33-.41.6-1.1.6-1.52,0-.44.24-2.34.55-4.23.3-1.89.55-3.57.55-3.69,0-.16-.3-.63-.68-1.04l-.65-.79h-7.12c-3.9,0-7.09-.1-7.09-.19,0-.16,2.89-17.02,3.11-18.25.08-.32-.14-.88-.52-1.33-.63-.73-.79-.76-5.02-.76-5.89,0-5.37-.69-6.98,9-.68,4.17-1.42,8.43-1.61,9.47l-.33,1.89-8.37.1c-4.61.03-8.37.03-8.37-.03s.24-1.45.55-3.09c.85-4.55,2.73-15.44,2.73-15.75,0-.16-.27-.57-.6-.95-.55-.57-.95-.63-5.02-.63s-4.5.06-5.05.57h0ZM72.51,123.62c0,.51-1.96,12.06-2.62,15.41l-.44,2.15h-8.29c-4.55,0-8.29-.13-8.29-.25,0-.25.9-5.27,1.77-9.85.22-1.14.6-3.38.85-4.99l.46-2.9h8.29c6.95,0,8.26.06,8.26.44h0ZM72.51,123.62"/>
  <g>
    <path class="st0" d="M335.53,102.47c-2.43.54-3.68,1.01-5.43,2.02-5.51,3.19-8.67,9.03-8.56,15.85.14,6.91,2.65,11.46,8.18,14.65,1.36.82,4.47,2.18,6.9,3.06,5.26,1.96,7.28,2.97,8.81,4.51,2.48,2.49,2.62,6.79.3,9.82-1.34,1.77-2.7,2.59-5.07,3.12-1.96.41-5.59.19-7.42-.47-1.94-.73-4.64-2.59-6.27-4.36l-1.66-1.8-2.78,3.25c-1.53,1.8-2.81,3.38-2.86,3.54-.22.79,3.9,4.58,6.63,6.06,3.44,1.93,5.89,2.53,10.8,2.72,3.3.13,4.75.06,6.55-.35,6.22-1.42,10.88-6.03,12.33-12.19.98-4.14.76-8.15-.63-11.62-1.09-2.72-2.18-4.23-4.23-5.9-2.18-1.8-3.79-2.62-9.65-4.96-5.54-2.18-7.53-3.31-9-5.15-3.9-4.89-.57-11.87,5.97-12.63,3.46-.41,6.93,1.07,9.82,4.13l1.66,1.8,2.92-3.28c1.61-1.8,2.95-3.44,3-3.63.05-.19-.85-1.36-1.96-2.59-2.35-2.56-5.35-4.45-8.48-5.27-2.67-.69-7.47-.88-9.85-.35h0ZM335.53,102.47"/>
    <path class="st0" d="M476.2,103.76c-3.35,1.99-4.01,7.01-1.31,10.13,1.94,2.27,4.28,2.56,6.68.85,1.8-1.29,2.56-3.13,2.43-5.84-.08-1.8-.22-2.3-.93-3.31-1.15-1.61-2.26-2.3-3.98-2.49-1.2-.16-1.69-.03-2.89.66h0ZM476.2,103.76"/>
    <path class="st0" d="M155.5,103.51l-2.26.13v59.64h9v-14.52c0-7.99.11-14.52.22-14.52.14,0,1.5,1.74,3.08,3.85,6.79,9.19,9.65,13.13,13.85,18.97l4.5,6.22h5.86c5.54,0,5.81-.03,5.43-.57-.22-.28-.95-1.33-1.64-2.27-2.02-2.84-16.8-23.01-18.85-25.67-1.66-2.21-1.83-2.56-1.47-3,.22-.32,3.25-4.23,6.76-8.78,12.95-16.7,14.84-19.13,14.89-19.35.05-.09-2.48-.19-5.65-.19-5.35,0-5.75.03-6.22.63-1.01,1.23-17.43,23.08-18.84,25.1-.82,1.14-1.58,2.08-1.69,2.15-.14.06-.24-6.13-.24-13.76v-13.89l-.6-.19c-.6-.19-1.58-.16-6.14.03h0ZM155.5,103.51"/>
    <path class="st0" d="M204.73,103.54l-1.85.09v59.64h9.27v-25.89h24.82v25.89h9.3l-.08-29.64c-.05-16.32-.14-29.74-.22-29.83-.27-.32-5.89-.6-7.45-.38l-1.55.22v24.59h-24.82l-.05-12.34-.08-12.34-2.73-.06c-1.5,0-3.55,0-4.55.06h0ZM204.73,103.54"/>
    <path class="st0" d="M259.14,103.51l-1.45.13v59.64h9v-59.6l-.6-.19c-.63-.19-4.39-.16-6.95.03h0ZM259.14,103.51"/>
    <path class="st0" d="M274.44,103.73c-.05.19-.08,2.37-.05,4.77l.08,4.42,7.85.1,7.83.06.03,24.88c.03,13.67.03,24.94,0,25.07,0,.16,1.99.25,4.47.25h4.5v-50.2h15.82v-9.38l-2.21-.22c-1.2-.13-10.31-.19-20.18-.19-14.02.03-18.03.13-18.14.44h0ZM274.44,103.73"/>
    <path class="st0" d="M375.32,122.86c-4.23,1.26-7.61,4.13-10.04,8.49-3.74,6.72-4.06,15.12-.87,22.29,2.48,5.52,7.15,9.34,12.74,10.45,4.66.92,9.79.16,13.42-1.96,1.53-.88,5.13-4.39,5.13-4.99,0-.22-1.23-1.64-2.73-3.13l-2.7-2.75-1.34,1.55c-3.11,3.6-7.64,4.67-11.95,2.84-2.18-.91-4.69-3.82-5.54-6.38-1.09-3.41-2.45-3.06,12.49-3.06,11.65,0,13.09-.06,13.23-.51.55-1.61-.24-8.62-1.31-11.96-1.28-3.92-3.93-7.51-6.93-9.41-3.33-2.08-9.35-2.75-13.61-1.48h0ZM383.96,130.53c2.67,1.33,4.83,4.61,4.99,7.64l.05,1.26-8.95-.06c-4.94-.03-9.03-.13-9.14-.22-.33-.41.85-3.72,1.85-5.18,1.15-1.67,2.32-2.65,4.31-3.57,1.55-.69,5.4-.63,6.87.13h0ZM383.96,130.53"/>
    <path class="st0" d="M420.67,122.58c-1.88.51-4.23,2.21-5.89,4.29l-1.64,2.02v-5.71h-8.18v40.09h8.45v-11.84c0-11.05.03-11.93.55-13.51,1.42-4.39,5.24-6.85,9.98-6.44l2.02.16v-9.41l-2.1.03c-1.17.03-2.59.16-3.19.32h0ZM420.67,122.58"/>
    <path class="st0" d="M504.07,122.86c-7.15,2.18-12.05,8.43-13.42,17.02-.35,2.3-.38,3.16-.08,5.84.57,5.27,1.94,8.71,4.91,12.28,2.1,2.56,4.5,4.26,7.53,5.46,1.96.76,2.56.85,6.27.88,4.61.03,6.05-.32,9.16-2.24,1.85-1.1,5.02-4.23,4.85-4.74-.05-.16-1.31-1.52-2.78-3.06l-2.65-2.75-1.45,1.48c-2.21,2.3-3.93,3.09-6.74,3.13-2.78,0-4.47-.6-6.41-2.3-4.15-3.63-5.43-11.24-2.86-17.11,2.95-6.69,10.91-8.3,15.82-3.19l1.5,1.52,2.65-2.87c1.47-1.58,2.67-3.03,2.67-3.22,0-.57-2.54-3.09-4.2-4.17-2.81-1.86-4.56-2.34-8.89-2.46-3.25-.09-4.31,0-5.89.51h0ZM504.07,122.86"/>
    <path class="st0" d="M540.4,122.86c-8.86,2.75-14.29,12.63-12.98,23.55.85,7.1,4.17,12.63,9.41,15.6,2.84,1.64,4.8,2.21,8.32,2.43,3.93.22,7.06-.41,9.95-2.08,2.15-1.23,5.59-4.45,5.59-5.21,0-.35-.74-1.17-4.45-4.92l-1.04-1.04-1.12,1.36c-1.66,1.99-3.33,3.06-5.65,3.66-1.77.47-2.35.47-3.98.16-2.54-.47-4.45-1.61-5.97-3.5-1.36-1.67-2.18-3.47-2.48-5.46l-.19-1.17h26.24l.16-.82c.25-1.17-.11-6.69-.6-8.87-.22-1.01-.9-3.03-1.53-4.51-2.05-4.86-5.73-8.21-10.23-9.31-2.62-.66-7.15-.57-9.46.16h0ZM549.26,130.72c2.4,1.33,4.31,4.26,4.72,7.2l.16,1.36h-18.33l.19-1.04c.65-3.63,3-6.63,6.14-7.89,1.8-.73,5.48-.54,7.12.38h0ZM549.26,130.72"/>
    <path class="st0" d="M577.27,122.74c-3.71,1.01-6.76,3.63-8.18,7.01-.76,1.8-.93,2.49-1.01,4.89-.08,2.62-.03,2.94.76,4.8,1.53,3.6,3.85,5.15,10.53,7.13,4.96,1.45,6.74,2.4,7.34,3.92.57,1.39.55,2.3-.11,3.57-2.13,4.04-9.27,3.66-13.31-.7-.74-.79-1.45-1.45-1.58-1.45s-1.36,1.26-2.7,2.84l-2.43,2.84,1.15,1.36c2.78,3.28,7.01,5.21,12.05,5.49,8.21.47,13.72-3.06,15.16-9.69,1.2-5.49-.87-10.54-5.32-12.91-.98-.54-3.68-1.51-5.95-2.21-6.16-1.86-7.45-2.81-7.45-5.33,0-1.23.14-1.58,1.06-2.59,1.34-1.48,3.19-2.05,5.56-1.74,2.24.28,3.71,1.07,5.34,2.84l1.34,1.45,2.13-2.27c1.2-1.23,2.37-2.49,2.65-2.81.46-.51.41-.6-.95-2.21-1.66-1.96-4.36-3.57-7.17-4.26-2.37-.57-6.85-.57-8.92.03h0ZM577.27,122.74"/>
    <path class="st0" d="M430.05,123.46c0,.16,2.56,7.45,5.67,16.2,3.14,8.71,6.3,17.62,7.04,19.73l1.34,3.88h9.57l1.34-3.73c.71-2.02,3.03-8.46,5.13-14.27,4.66-12.91,7.83-21.82,7.83-21.97,0-.09-2.05-.09-4.55-.06l-4.53.1-.63,1.89c-.33,1.04-1.74,5.3-3.11,9.47-1.36,4.17-3.22,9.91-4.15,12.79-.9,2.87-1.75,5.33-1.85,5.46-.08.13-.9-1.93-1.77-4.58-.87-2.65-3.03-9.16-4.77-14.46-1.77-5.3-3.27-9.88-3.35-10.2-.16-.47-.63-.54-4.69-.54-2.51,0-4.5.13-4.5.28h0ZM430.05,123.46"/>
    <path class="st0" d="M474.51,143.22v20.05h8.13l.16-3.57c.14-2.81.08-25.29-.08-34.57l-.03-1.96h-8.18v20.05ZM474.51,143.22"/>
  </g>
</svg>