<?xml version="1.0" standalone="no"?>
<!DOCTYPE svg PUBLIC "-//W3C//DTD SVG 20010904//EN"
 "http://www.w3.org/TR/2001/REC-SVG-20010904/DTD/svg10.dtd">
<svg version="1.0" xmlns="http://www.w3.org/2000/svg"
 width="1672.000000pt" height="941.000000pt" viewBox="0 0 1672.000000 941.000000"
 preserveAspectRatio="xMidYMid meet">
<metadata>
Created by potrace 1.16, written by Peter Selinger 2001-2019
</metadata>
<g transform="translate(0.000000,941.000000) scale(0.100000,-0.100000)"
fill="#000000" stroke="none">
<path d="M2755 6325 c-371 -53 -686 -207 -936 -459 -222 -224 -361 -483 -421
-789 -28 -143 -30 -374 -4 -517 88 -488 411 -904 867 -1119 412 -194 850 -208
1267 -42 424 168 724 485 868 916 60 180 77 289 78 485 0 202 -20 329 -80 501
-132 381 -408 695 -767 876 -113 56 -295 117 -412 138 -131 23 -340 27 -460
10z m481 -213 c516 -120 887 -479 1016 -982 39 -152 49 -392 24 -540 -49 -284
-177 -534 -375 -730 -116 -115 -214 -183 -363 -255 -515 -247 -1136 -149
-1551 245 -119 112 -206 231 -277 375 -106 214 -141 362 -142 590 -1 578 378
1081 954 1263 51 17 127 35 168 42 41 6 82 13 90 15 8 2 94 2 190 1 135 -2
196 -8 266 -24z"/>
<path d="M2582 5643 c-5 -10 -26 -105 -47 -210 l-38 -193 -172 0 c-212 0 -207
3 -230 -123 -24 -132 -31 -127 181 -127 l174 0 -7 -27 c-4 -16 -21 -98 -37
-183 l-31 -155 -175 -5 c-172 -5 -175 -5 -186 -29 -19 -38 -39 -190 -27 -202
6 -6 77 -12 168 -14 86 -2 159 -6 162 -9 3 -2 -12 -90 -33 -194 -33 -161 -36
-192 -25 -206 21 -25 214 -23 239 2 13 13 28 72 52 193 18 95 36 182 39 192 6
16 27 18 204 22 149 3 197 1 197 -8 0 -7 -16 -96 -37 -199 -31 -156 -35 -189
-24 -202 21 -25 222 -23 243 2 9 10 32 99 53 208 l37 192 88 6 c48 4 138 6
198 5 74 -2 116 2 125 9 8 7 20 47 26 90 7 42 14 84 17 93 3 9 -3 24 -11 33
-14 14 -45 16 -201 16 -169 0 -184 1 -183 18 0 9 15 91 32 182 l33 165 186 3
c149 2 188 5 198 17 13 16 40 142 40 187 0 17 -8 31 -19 38 -11 6 -90 10 -185
10 -91 0 -166 3 -166 8 0 4 17 91 39 193 25 125 35 192 29 203 -8 13 -28 16
-129 16 -142 0 -127 16 -164 -180 -14 -74 -30 -159 -36 -187 l-10 -53 -200 0
c-109 0 -199 3 -199 8 0 4 16 90 37 192 20 102 34 193 30 203 -5 15 -22 17
-126 17 -105 0 -121 -2 -129 -17z m531 -680 c-4 -16 -21 -98 -38 -183 l-31
-155 -197 -3 c-183 -2 -197 -1 -197 15 0 16 57 311 66 341 2 9 52 12 204 12
l200 0 -7 -27z"/>
<path d="M9390 5417 c-87 -21 -150 -56 -216 -122 -76 -76 -99 -134 -98 -251 1
-99 31 -170 98 -232 57 -53 115 -82 256 -127 210 -68 260 -107 260 -198 0
-109 -82 -171 -225 -171 -69 0 -90 4 -146 31 -36 16 -85 49 -109 72 l-44 42
-68 -68 c-37 -37 -68 -73 -68 -79 0 -16 93 -86 155 -117 218 -109 511 -79 640
66 60 66 85 137 85 241 0 73 -4 90 -31 145 -50 101 -128 150 -357 226 -165 54
-222 103 -222 190 0 61 29 106 90 138 96 50 221 30 311 -51 l49 -44 75 69 c41
37 75 70 75 74 0 12 -97 97 -130 114 -107 55 -271 77 -380 52z"/>
<path d="M12774 5391 c-46 -28 -64 -59 -64 -110 0 -147 180 -187 249 -54 26
51 1 131 -51 163 -42 25 -94 26 -134 1z"/>
<path d="M5040 4780 l0 -620 110 0 110 0 0 300 c0 165 3 300 8 300 4 -1 122
-136 262 -300 l255 -299 139 -1 c131 0 138 1 124 18 -179 213 -356 420 -432
507 -52 61 -96 113 -96 117 0 7 81 98 448 506 l84 93 -143 -3 -143 -3 -244
-280 c-134 -154 -248 -281 -253 -283 -5 -2 -9 112 -9 282 l0 286 -110 0 -110
0 0 -620z"/>
<path d="M6235 5388 c-3 -7 -4 -285 -3 -618 l3 -605 107 -3 108 -3 2 268 3
268 295 0 295 0 3 -267 2 -268 110 0 110 0 0 620 0 620 -110 0 -110 0 0 -255
0 -255 -300 0 -300 0 0 255 0 255 -105 0 c-75 0 -107 -4 -110 -12z"/>
<path d="M7550 4780 l0 -620 105 0 105 0 0 620 0 620 -105 0 -105 0 0 -620z"/>
<path d="M7950 5300 l0 -100 190 0 190 0 0 -520 0 -520 105 0 105 0 0 520 0
520 190 0 190 0 0 100 0 100 -485 0 -485 0 0 -100z"/>
<path d="M13500 5010 c-164 -26 -290 -122 -351 -270 -33 -78 -33 -249 -1 -330
46 -117 153 -215 277 -255 81 -26 218 -26 300 0 59 19 180 100 180 121 0 6
-28 36 -62 68 l-62 57 -47 -37 c-63 -47 -83 -54 -158 -54 -108 0 -197 61 -232
159 -16 45 -18 152 -2 202 6 22 27 57 46 79 92 108 247 118 352 24 l36 -33 64
64 64 65 -33 34 c-81 84 -232 127 -371 106z"/>
<path d="M14365 5009 c-309 -45 -463 -413 -286 -686 136 -211 489 -254 675
-83 25 24 46 46 46 50 0 5 -30 34 -66 66 l-66 58 -20 -27 c-11 -15 -41 -40
-66 -55 -41 -23 -58 -27 -128 -27 -72 0 -86 3 -129 30 -50 31 -98 95 -111 147
l-6 28 313 2 314 3 3 58 c9 164 -67 318 -193 391 -72 42 -179 59 -280 45z
m168 -175 c60 -31 92 -72 108 -141 l7 -33 -219 0 -219 0 6 28 c16 65 62 119
124 146 47 21 152 20 193 0z"/>
<path d="M15242 5008 c-157 -18 -262 -120 -262 -255 1 -116 61 -185 192 -223
37 -11 100 -29 139 -41 81 -23 119 -54 119 -97 0 -122 -204 -136 -333 -22
l-34 29 -56 -57 c-31 -32 -57 -63 -57 -69 0 -16 88 -78 145 -103 167 -72 396
-35 481 77 73 96 68 229 -10 308 -46 46 -103 71 -237 105 -104 27 -137 44
-150 77 -23 61 39 115 130 115 59 0 108 -20 150 -62 l33 -33 61 62 62 62 -48
44 c-74 68 -193 98 -325 83z"/>
<path d="M10345 4993 c-115 -41 -191 -106 -241 -205 -141 -276 1 -582 298
-644 110 -23 253 -2 338 49 41 25 110 86 110 97 0 4 -30 33 -67 65 l-66 56
-24 -26 c-98 -105 -255 -114 -361 -21 -35 31 -71 96 -72 129 0 16 21 17 309
17 l310 0 6 43 c9 60 -11 172 -44 243 -39 84 -91 138 -169 176 -60 30 -76 33
-172 36 -81 2 -116 -2 -155 -15z m222 -154 c40 -15 82 -57 104 -104 36 -79 46
-75 -196 -75 -239 0 -232 -3 -196 68 22 42 62 82 106 105 35 19 140 22 182 6z"/>
<path d="M11400 4987 c-25 -12 -67 -43 -93 -71 -27 -27 -48 -43 -47 -35 1 8 2
35 1 62 l-1 47 -95 0 -95 0 0 -415 0 -415 100 0 100 0 0 238 c0 141 5 253 11
277 14 51 81 116 136 133 22 6 66 12 97 12 l56 0 0 95 0 95 -62 0 c-43 -1 -77
-8 -108 -23z"/>
<path d="M11673 4978 c3 -7 49 -119 102 -248 54 -129 128 -309 165 -400 l68
-165 115 -3 114 -3 20 48 c154 366 323 773 323 780 0 2 -49 3 -108 3 l-108 0
-65 -172 c-37 -95 -88 -233 -115 -305 -27 -73 -52 -133 -55 -133 -4 0 -34 71
-67 158 -33 86 -86 223 -118 305 l-57 147 -109 0 c-84 0 -109 -3 -105 -12z"/>
<path d="M12740 4575 l0 -415 100 0 100 0 0 415 0 415 -100 0 -100 0 0 -415z"/>
</g>
</svg>
