<?xml version="1.0" encoding="UTF-8"?>
<svg id="Layer_1" xmlns="http://www.w3.org/2000/svg" version="1.1" viewBox="0 0 1412.48 1445.5">
  <!-- Generator: Adobe Illustrator 29.8.1, SVG Export Plug-In . SVG Version: 2.1.1 Build 2)  -->
  <defs>
    <style>
      .st0 {
        fill: #e75b25;
      }

      .st1 {
        fill: #091b35;
      }
    </style>
  </defs>
  <path class="st0" d="M659.88,1.66c-173.18,16.11-328.46,89.25-449.18,211.04-60.21,60.73-102.83,119.61-135.33,187.49C21.13,512.05-4.2,631.68.57,749.44c11.33,265.58,159.46,498,395.53,620.09,153.8,79.34,326.97,97,499.55,50.83,133.23-35.33,255.73-114.04,344.55-221.57,91.21-110.01,148.74-241.41,167.81-382.41,5.96-44.31,5.96-139.14,0-185.94-14.31-114.03-58.43-228.39-125.78-326.31-24.15-35.02-69.45-88.02-73.33-85.54-1.49.93-2.08.32-1.19-1.23,3.88-6.83-96.27-92.67-104.32-89.57-2.08.93-4.47,0-5.67-1.85-1.49-2.18-.59-2.48,2.1-.93,11.03,6.5-3.88-5.27-21.17-17.04-55.74-37.19-144.86-74.37-218.48-91.42-58.72-13.33-146.05-19.84-200.29-14.88h0ZM787.15,94.31c69.15,8.38,133.53,27.89,197.62,60.13,163.63,81.81,280.48,227.77,326.38,407.19,67.36,262.79-35.77,540.76-257.82,694.48-62.9,43.39-141.58,77.16-216.99,92.97-196.42,40.9-394.03-14.56-548.43-154.64-9.54-8.67-18.78-15.49-20.27-15.18-1.49.62-2.38-.93-1.78-3.1.29-1.86-1.49-3.41-3.87-2.78-2.39.62-3.58.3-2.39-.93,2.39-2.8-44.41-58.88-49.47-58.88-1.79-.32-2.98-1.87-2.69-3.72.59-2.18-8.94-18.91-20.86-37.19-47.39-72.82-81.97-165.18-97.77-261.24-5.06-30.37-5.06-148.13,0-181.29,4.78-31.92,24.45-103.51,38.15-139.45,37.26-98.23,105.52-193.38,184.2-257.53,92.7-75.3,219.97-129.22,330.85-140.38,38.15-3.72,107.9-3.1,145.15,1.55h0ZM787.15,94.31"/>
  <path class="st1" d="M553.76,324.27c-5.66,4.95-9.23,18.59-25.03,100.09l-18.19,94.21-82.56,1.55c-77.5,1.55-82.86,1.85-88.22,7.75-4.47,4.65-7.45,17.04-12.53,51.75-9.53,63.22-16.69,58.26,80.78,58.26,42.03,0,77.19.62,78.09,1.55.59.93-2.68,21.38-7.45,45.55-4.76,24.48-12.21,63.22-16.69,86.15l-7.75,41.84-80.18,1.55c-69.45,1.23-80.18,2.17-83.46,6.5-1.79,3.1-6.57,25.72-10.43,50.51-9.84,62.6-16.1,57.65,76.01,57.65,39.94,0,73.03.93,73.62,2.17.6,1.55-6.55,42.15-16.1,90.8-9.54,48.65-17.28,89.87-17.28,92.04-.3,2.17,2.68,6.51,6.25,10.23,5.96,5.58,10.43,6.2,54.85,6.2,41.43,0,49.18-.62,54.54-5.58,5.37-4.33,8.94-19.21,22.35-88.94,8.94-46.18,17-88.94,17.88-95.45l2.1-11.46h90.61c87.03,0,90.91.3,90.91,5.88,0,4.65-5.07,31.92-13.41,72.82-1.79,9.61-16.39,88.64-18.48,99.79-1.2,7.44,0,11.48,4.76,16.42,5.96,6.2,9.25,6.51,55.14,6.51,42.03,0,49.79-.62,55.14-5.58,5.67-4.33,9.25-20.14,24.74-100.72l18.18-95.13h90.32c83.75,0,90.91-.32,95.97-5.58,4.17-4.33,7.45-18.28,12.52-51.13,9.54-63.53,18.18-57.95-90.01-57.95-71.84,0-85.84-.62-85.84-4.34,0-4.95,28.91-158.35,31.6-167.03,1.49-4.96,8.34-5.27,85.83-5.27,84.06,0,84.35,0,90.62-7.13,3.58-4.03,6.56-10.85,6.56-14.88,0-4.33,2.68-22.93,5.96-41.52,3.28-18.59,5.96-35.02,5.96-36.25,0-1.55-3.28-6.2-7.45-10.23l-7.15-7.75h-77.8c-42.63,0-77.5-.93-77.5-1.87,0-1.55,31.6-167.03,33.97-179.12.9-3.1-1.49-8.67-5.66-13.02-6.86-7.13-8.64-7.43-54.84-7.43-64.38,0-58.73-6.81-76.31,88.32-7.45,40.9-15.5,82.74-17.58,92.97l-3.59,18.59-91.5.93c-50.37.3-91.5.3-91.5-.32s2.68-14.26,5.96-30.37c9.24-44.62,29.81-151.53,29.81-154.63,0-1.55-2.98-5.58-6.56-9.3-5.96-5.58-10.43-6.2-54.85-6.2s-49.18.62-55.14,5.58h0ZM792.52,642.21c0,4.96-21.46,118.38-28.62,151.23l-4.76,21.08h-90.62c-49.77,0-90.6-1.25-90.6-2.48,0-2.48,9.84-51.75,19.37-96.68,2.38-11.16,6.55-33.16,9.24-48.97l5.06-28.51h90.61c76.01,0,90.32.62,90.32,4.33h0ZM792.52,642.21"/>
</svg>